# Wavefront OBJ file made by Mineways version 8.05, http://mineways.com
# Minecraft world: Nouveau monde (3)
# Terrain file name: default
# Color scheme: Standard
# Fri May 21 18:58:34 2021

# Selection location min to max: -201, 62, -89 to -194, 255, -82
#   Non-empty selection location min to max: -199, 79, -87 to -196, 82, -84

# Set render type: Wavefront OBJ absolute indices
# Units for the model vertex data itself: meters

# 183 vertices, 153 faces (306 triangles), 39 blocks, 8 billboards/bits
# block dimensions: X=5 by Y=4 (height) by Z=5 blocks
# Elevation shading: no
# Lighting: no
# Transparent Water: no
# File type: Export full color texture patterns
# Texture output RGB: YES
# Texture output A: YES
# Texture output RGBA: YES
# Make groups objects: no
# Export separate objects: YES
# Individual blocks: no
#   Material per family: YES
#   Split by block type: no
# G3D full material: YES
# Make Z the up direction instead of Y: no
# Create composite overlay faces: no
# Center model: YES
# Export lesser blocks: YES
# Fatten lesser blocks: no
# Create block faces at the borders: YES
# Make tree leaves solid: no
# Use biomes: no
# Rotate model 0.000000 degrees
# Scale model by making each block 1000 mm high
# Data operation options:
#   Fill air bubbles: no; Seal off entrances: no; Fill in isolated tunnels in base of model: no
#   Connect parts sharing an edge: no; Connect corner tips: no; Weld all shared edges: no
#   Delete floating objects: trees and parts smaller than 16 blocks: no
#   Hollow out bottom of model, making the walls 1000 mm thick: no; Superhollow: no
# Melt snow blocks: no
#   Debug: show separate parts as colors: no
#   Debug: show weld blocks in bright colors: no

# Full world path: C:\Users\simon\AppData\Roaming\.minecraft\saves\Nouveau monde (3)
# Full terrainExt.png path: default
# Full current path: C:\Users\simon\Desktop

mtllib test_c.mtl

o Nouveau_monde_(3)__-201_62_-89_to_-194_255_-82
vn -1 0 0
vn 0 -1 0
vn 0 0 -1
vn 1 0 0
vn 0 1 0
vn 0 0 1
vn -0.707107 0 -0.707107
vn -0.707107 0 0.707107
vn 0.707107 0 -0.707107
vn 0.707107 0 0.707107
vn -0.707107 -0.707107 0
vn 0 -0.707107 -0.707107
vn 0.707107 -0.707107 0
vn 0 -0.707107 0.707107
vn -0.707107 0.707107 0
vn 0 0.707107 -0.707107
vn 0.707107 0.707107 0
vn 0 0.707107 0.707107
vn -0.92388 0 -0.382683
vn -0.92388 0 0.382683
vn 0.92388 0 -0.382683
vn 0.92388 0 0.382683
vn -0.382683 0 -0.92388
vn -0.382683 0 0.92388
vn 0.382683 0 -0.92388
vn 0.382683 0 0.92388
vn -0.397273 0.9177 0
vn 0.397273 -0.9177 0
vn 0.397273 0.9177 0
vn -0.397273 -0.9177 0
vn 0 0.9177 -0.397273
vn 0 -0.9177 0.397273
vn 0 0.9177 0.397273
vn 0 -0.9177 -0.397273
vn -0.440932 0.897541 0
vn 0.440932 -0.897541 0
vn 0.440932 0.897541 0
vn -0.440932 -0.897541 0
vn 0 0.897541 -0.440932
vn 0 -0.897541 0.440932
vn 0 0.897541 0.440932
vn 0 -0.897541 -0.440932
# brown_mushroom
vt 0.037109375 0.931640625
vt 0.068359375 0.931640625
vt 0.068359375 0.962890625
vt 0.037109375 0.962890625
# red_mushroom
vt 0.001953125 0.931640625
vt 0.033203125 0.931640625
vt 0.033203125 0.962890625
vt 0.001953125 0.962890625
# crimson_planks
vt 0.845703125 0.138671875
vt 0.876953125 0.138671875
vt 0.876953125 0.154296875
vt 0.845703125 0.154296875
vt 0.845703125 0.123046875
vt 0.876953125 0.123046875
# mycelium_side
vt 0.740234375 0.896484375
vt 0.771484375 0.896484375
vt 0.771484375 0.927734375
vt 0.740234375 0.927734375
# dirt
vt 0.072265625 0.966796875
vt 0.103515625 0.966796875
vt 0.103515625 0.998046875
vt 0.072265625 0.998046875
# mycelium_top
vt 0.775390625 0.896484375
vt 0.806640625 0.896484375
vt 0.806640625 0.927734375
vt 0.775390625 0.927734375
# spawner
vt 0.318359375 0.896484375
vt 0.349609375 0.896484375
vt 0.349609375 0.927734375
vt 0.318359375 0.927734375
v -1.95312 18 -0.953125
v -1.04688 18 -0.046875
v -1.04688 19 -0.046875
v -1.95312 19 -0.953125
v -1.95312 18 -0.046875
v -1.04688 18 -0.953125
v -1.04688 19 -0.953125
v -1.95312 19 -0.046875
v -1.95312 18 0.046875
v -1.04688 18 0.953125
v -1.04688 19 0.953125
v -1.95312 19 0.046875
v -1.95312 18 0.953125
v -1.04688 18 0.046875
v -1.04688 19 0.046875
v -1.95312 19 0.953125
v -2 19.5 -1
v -2 19.5 0
v -2 20 -1
v -2 20 0
v -1 19.5 -1
v -1 19.5 0
v -1 20 -1
v -1 20 0
v -2 19.5 0
v -2 19.5 1
v -2 20 0
v -2 20 1
v -1 19.5 0
v -1 19.5 1
v -1 20 0
v -1 20 1
v 1 19 -2
v 1 19 -1
v 1 19.5 -2
v 1 19.5 -1
v 2 19 -2
v 2 19 -1
v 2 19.5 -2
v 2 19.5 -1
v 1 18 -1
v 1 18 0
v 1 18.5 -1
v 1 18.5 0
v 2 18 -1
v 2 18 0
v 2 18.5 -1
v 2 18.5 0
v 1 18 0
v 1 18 1
v 1 18.5 0
v 1 18.5 1
v 2 18 0
v 2 18 1
v 2 18.5 0
v 2 18.5 1
v 1 19 1
v 1 19 2
v 1 19.5 1
v 1 19.5 2
v 2 19 1
v 2 19 2
v 2 19.5 1
v 2 19.5 2
v -2 17 -2
v -2 17 -1
v -2 18 -1
v -2 18 -2
v -1 17 -1
v -1 17 -2
v -1 18 -2
v -2 19 -1
v -2 19 -2
v -1 19 -2
v -1 18 -1
v -1 19 -1
v -2 20 -1
v -2 20 -2
v -1 20 -2
v -1 20 -1
v -2 21 -1
v -2 21 -2
v -1 21 -2
v -1 21 -1
v -2 17 0
v -2 18 0
v -1 17 0
v -1 18 0
v -2 20 0
v -2 21 0
v -1 20 0
v -1 21 0
v -2 17 1
v -2 18 1
v -1 17 1
v -1 18 1
v -2 20 1
v -2 21 1
v -1 20 1
v -1 21 1
v -2 17 2
v -2 18 2
v -1 17 2
v -1 18 2
v -2 19 2
v -2 19 1
v -1 19 1
v -1 19 2
v -2 20 2
v -1 20 2
v -2 21 2
v -1 21 2
v 0 17 -1
v 0 17 -2
v 0 18 -2
v 0 18 -1
v 0 20 -1
v 0 20 -2
v 0 21 -2
v 0 21 -1
v 0 17 0
v 0 18 0
v 0 20 0
v 0 21 0
v 0 17 1
v 0 18 1
v 0 20 1
v 0 21 1
v 0 17 2
v 0 18 2
v 0 20 2
v 0 21 2
v 1 17 -1
v 1 17 -2
v 1 18 -2
v 1 18 -1
v 1 20 -1
v 1 20 -2
v 1 21 -2
v 1 21 -1
v 1 17 0
v 1 18 0
v 1 20 0
v 1 21 0
v 1 17 1
v 1 18 1
v 0 19 1
v 0 19 0
v 1 19 0
v 1 19 1
v 1 20 1
v 1 21 1
v 1 17 2
v 1 18 2
v 1 20 2
v 1 21 2
v 2 17 -1
v 2 17 -2
v 2 18 -2
v 2 18 -1
v 1 19 -1
v 1 19 -2
v 2 19 -2
v 2 19 -1
v 2 20 -1
v 2 20 -2
v 2 21 -2
v 2 21 -1
v 2 17 0
v 2 18 0
v 2 20 0
v 2 21 0
v 2 17 1
v 2 18 1
v 2 20 1
v 2 21 1
v 2 17 2
v 2 18 2
v 1 19 2
v 2 19 1
v 2 19 2
v 2 20 2
v 2 21 2

g Oak_Planks
usemtl Oak_Planks
f 66/14/1 67/11/1 68/12/1 65/13/1
f 66/13/2 65/12/2 70/11/2 69/14/2
f 65/14/3 68/11/3 71/12/3 70/13/3
f 67/14/1 72/11/1 73/12/1 68/13/1
f 68/14/3 73/11/3 74/12/3 71/13/3
f 75/13/4 71/14/4 74/11/4 76/12/4
f 67/13/6 75/14/6 76/11/6 72/12/6
f 72/14/1 77/11/1 78/12/1 73/13/1
f 73/14/3 78/11/3 79/12/3 74/13/3
f 76/13/4 74/14/4 79/11/4 80/12/4
f 72/13/6 76/14/6 80/11/6 77/12/6
f 77/14/1 81/11/1 82/12/1 78/13/1
f 78/14/3 82/11/3 83/12/3 79/13/3
f 81/13/5 84/14/5 83/11/5 82/12/5
f 89/14/1 90/11/1 81/12/1 77/13/1
f 89/13/2 77/12/2 80/11/2 91/14/2
f 90/13/5 92/14/5 84/11/5 81/12/5
f 97/14/1 98/11/1 90/12/1 89/13/1
f 97/13/2 89/12/2 91/11/2 99/14/2
f 98/13/5 100/14/5 92/11/5 90/12/5
f 101/14/1 102/11/1 94/12/1 93/13/1
f 101/13/2 93/12/2 95/11/2 103/14/2
f 101/13/6 103/14/6 104/11/6 102/12/6
f 102/14/1 105/11/1 106/12/1 94/13/1
f 94/14/3 106/11/3 107/12/3 96/13/3
f 104/13/4 96/14/4 107/11/4 108/12/4
f 102/13/6 104/14/6 108/11/6 105/12/6
f 105/14/1 109/11/1 97/12/1 106/13/1
f 106/14/3 97/11/3 99/12/3 107/13/3
f 108/13/4 107/14/4 99/11/4 110/12/4
f 105/13/6 108/14/6 110/11/6 109/12/6
f 109/14/1 111/11/1 98/12/1 97/13/1
f 111/13/5 112/14/5 100/11/5 98/12/5
f 109/13/6 110/14/6 112/11/6 111/12/6
f 69/13/2 70/12/2 114/11/2 113/14/2
f 70/14/3 71/11/3 115/12/3 114/13/3
f 75/13/5 116/14/5 115/11/5 71/12/5
f 80/13/2 79/12/2 118/11/2 117/14/2
f 79/14/3 83/11/3 119/12/3 118/13/3
f 84/13/5 120/14/5 119/11/5 83/12/5
f 87/13/2 69/12/2 113/11/2 121/14/2
f 88/13/5 122/14/5 116/11/5 75/12/5
f 91/13/2 80/12/2 117/11/2 123/14/2
f 92/13/5 124/14/5 120/11/5 84/12/5
f 95/13/2 87/12/2 121/11/2 125/14/2
f 96/13/5 126/14/5 122/11/5 88/12/5
f 99/13/2 91/12/2 123/11/2 127/14/2
f 100/13/5 128/14/5 124/11/5 92/12/5
f 103/13/2 95/12/2 125/11/2 129/14/2
f 104/13/5 130/14/5 126/11/5 96/12/5
f 103/13/6 129/14/6 130/11/6 104/12/6
f 110/13/2 99/12/2 127/11/2 131/14/2
f 112/13/5 132/14/5 128/11/5 100/12/5
f 110/13/6 131/14/6 132/11/6 112/12/6
f 113/13/2 114/12/2 134/11/2 133/14/2
f 114/14/3 115/11/3 135/12/3 134/13/3
f 116/13/5 136/14/5 135/11/5 115/12/5
f 117/13/2 118/12/2 138/11/2 137/14/2
f 118/14/3 119/11/3 139/12/3 138/13/3
f 120/13/5 140/14/5 139/11/5 119/12/5
f 121/13/2 113/12/2 133/11/2 141/14/2
f 122/13/5 142/14/5 136/11/5 116/12/5
f 123/13/2 117/12/2 137/11/2 143/14/2
f 124/13/5 144/14/5 140/11/5 120/12/5
f 125/13/2 121/12/2 141/11/2 145/14/2
f 126/13/5 146/14/5 142/11/5 122/12/5
f 127/13/2 123/12/2 143/11/2 151/14/2
f 128/13/5 152/14/5 144/11/5 124/12/5
f 129/13/2 125/12/2 145/11/2 153/14/2
f 130/13/5 154/14/5 146/11/5 126/12/5
f 129/13/6 153/14/6 154/11/6 130/12/6
f 131/13/2 127/12/2 151/11/2 155/14/2
f 132/13/5 156/14/5 152/11/5 128/12/5
f 131/13/6 155/14/6 156/11/6 132/12/6
f 133/13/2 134/12/2 158/11/2 157/14/2
f 134/14/3 135/11/3 159/12/3 158/13/3
f 157/13/4 158/14/4 159/11/4 160/12/4
f 136/14/1 161/11/1 162/12/1 135/13/1
f 135/14/3 162/11/3 163/12/3 159/13/3
f 160/13/4 159/14/4 163/11/4 164/12/4
f 161/13/5 164/14/5 163/11/5 162/12/5
f 136/13/6 160/14/6 164/11/6 161/12/6
f 137/13/2 138/12/2 166/11/2 165/14/2
f 138/14/3 139/11/3 167/12/3 166/13/3
f 165/13/4 166/14/4 167/11/4 168/12/4
f 140/13/5 168/14/5 167/11/5 139/12/5
f 141/13/2 133/12/2 157/11/2 169/14/2
f 169/13/4 157/14/4 160/11/4 170/12/4
f 142/13/5 170/14/5 160/11/5 136/12/5
f 143/13/2 137/12/2 165/11/2 171/14/2
f 171/13/4 165/14/4 168/11/4 172/12/4
f 144/13/5 172/14/5 168/11/5 140/12/5
f 145/13/2 141/12/2 169/11/2 173/14/2
f 173/13/4 169/14/4 170/11/4 174/12/4
f 146/13/5 174/14/5 170/11/5 142/12/5
f 151/13/2 143/12/2 171/11/2 175/14/2
f 175/13/4 171/14/4 172/11/4 176/12/4
f 152/13/5 176/14/5 172/11/5 144/12/5
f 153/13/2 145/12/2 173/11/2 177/14/2
f 177/13/4 173/14/4 174/11/4 178/12/4
f 153/13/6 177/14/6 178/11/6 154/12/6
f 154/14/1 179/11/1 150/12/1 146/13/1
f 146/14/3 150/11/3 180/12/3 174/13/3
f 178/13/4 174/14/4 180/11/4 181/12/4
f 179/13/5 181/14/5 180/11/5 150/12/5
f 154/13/6 178/14/6 181/11/6 179/12/6
f 155/13/2 151/12/2 175/11/2 182/14/2
f 182/13/4 175/14/4 176/11/4 183/12/4
f 156/13/5 183/14/5 176/11/5 152/12/5
f 155/13/6 182/14/6 183/11/6 156/12/6

g Brown_Mushroom
usemtl Brown_Mushroom
f 1/1/8 2/2/8 3/3/8 4/4/8
f 4/4/9 3/3/9 2/2/9 1/1/9
f 5/1/10 6/2/10 7/3/10 8/4/10
f 7/3/7 6/2/7 5/1/7 8/4/7

g Red_Mushroom
usemtl Red_Mushroom
f 9/5/8 10/6/8 11/7/8 12/8/8
f 12/8/9 11/7/9 10/6/9 9/5/9
f 13/5/10 14/6/10 15/7/10 16/8/10
f 15/7/7 14/6/7 13/5/7 16/8/7

g Monster_Spawner
usemtl Monster_Spawner
f 126/28/1 147/29/1 148/30/1 122/27/1
f 122/28/3 148/29/3 149/30/3 142/27/3
f 146/27/4 142/28/4 149/29/4 150/30/4
f 147/27/5 150/28/5 149/29/5 148/30/5
f 126/27/6 146/28/6 150/29/6 147/30/6

g Mycelium
usemtl Mycelium
f 85/16/1 86/17/1 67/18/1 66/15/1
f 85/21/2 66/20/2 69/19/2 87/22/2
f 86/25/5 88/26/5 75/23/5 67/24/5
f 93/16/1 94/17/1 86/18/1 85/15/1
f 93/21/2 85/20/2 87/19/2 95/22/2
f 94/25/5 96/26/5 88/23/5 86/24/5

g Crimson_Slab
usemtl Crimson_Slab
f 19/12/1 17/9/1 18/10/1 20/11/1
f 18/13/2 17/12/2 21/11/2 22/14/2
f 23/11/4 24/12/4 22/9/4 21/10/4
f 27/12/1 25/9/1 26/10/1 28/11/1
f 26/13/2 25/12/2 29/11/2 30/14/2
f 31/12/3 29/9/3 25/10/3 27/11/3
f 31/11/4 32/12/4 30/9/4 29/10/4
f 35/9/1 33/13/1 34/14/1 36/10/1
f 39/9/3 37/13/3 33/14/3 35/10/3
f 39/10/4 40/9/4 38/13/4 37/14/4
f 39/11/5 35/12/5 36/13/5 40/14/5
f 40/10/6 36/9/6 34/13/6 38/14/6
f 43/9/1 41/13/1 42/14/1 44/10/1
f 47/10/4 48/9/4 46/13/4 45/14/4
f 47/11/5 43/12/5 44/13/5 48/14/5
f 51/9/1 49/13/1 50/14/1 52/10/1
f 55/9/3 53/13/3 49/14/3 51/10/3
f 55/10/4 56/9/4 54/13/4 53/14/4
f 55/11/5 51/12/5 52/13/5 56/14/5
f 59/9/1 57/13/1 58/14/1 60/10/1
f 63/9/3 61/13/3 57/14/3 59/10/3
f 63/10/4 64/9/4 62/13/4 61/14/4
f 63/11/5 59/12/5 60/13/5 64/14/5
f 64/10/6 60/9/6 58/13/6 62/14/6
